<svg width="24" height="24" viewBox="0 0 24 24" fill="none" xmlns="http://www.w3.org/2000/svg">
<mask id="path-1-inside-1_195_1819" fill="white">
<path d="M11.9996 23.9001C5.41961 23.9001 0.0996094 18.5801 0.0996094 12.0001C0.0996094 5.4201 5.41961 0.100098 11.9996 0.100098C18.5796 0.100098 23.8996 5.4201 23.8996 12.0001C23.8996 18.5801 18.5796 23.9001 11.9996 23.9001ZM11.9996 1.5001C6.18961 1.5001 1.49961 6.1901 1.49961 12.0001C1.49961 17.8101 6.18961 22.5001 11.9996 22.5001C17.8096 22.5001 22.4996 17.8101 22.4996 12.0001C22.4996 6.1901 17.8096 1.5001 11.9996 1.5001Z"/>
</mask>
<path d="M11.9996 23.9001C5.41961 23.9001 0.0996094 18.5801 0.0996094 12.0001C0.0996094 5.4201 5.41961 0.100098 11.9996 0.100098C18.5796 0.100098 23.8996 5.4201 23.8996 12.0001C23.8996 18.5801 18.5796 23.9001 11.9996 23.9001ZM11.9996 1.5001C6.18961 1.5001 1.49961 6.1901 1.49961 12.0001C1.49961 17.8101 6.18961 22.5001 11.9996 22.5001C17.8096 22.5001 22.4996 17.8101 22.4996 12.0001C22.4996 6.1901 17.8096 1.5001 11.9996 1.5001Z" fill="#1FCD64"/>
<path d="M11.9996 -16.0999C27.511 -16.0999 40.0996 -3.51129 40.0996 12.0001H-39.9004C-39.9004 40.6715 -16.6718 63.9001 11.9996 63.9001V-16.0999ZM40.0996 12.0001C40.0996 27.5115 27.511 40.1001 11.9996 40.1001V-39.8999C-16.6718 -39.8999 -39.9004 -16.6713 -39.9004 12.0001H40.0996ZM11.9996 40.1001C-3.51178 40.1001 -16.1004 27.5115 -16.1004 12.0001H63.8996C63.8996 -16.6713 40.671 -39.8999 11.9996 -39.8999V40.1001ZM-16.1004 12.0001C-16.1004 -3.51129 -3.51178 -16.0999 11.9996 -16.0999V63.9001C40.671 63.9001 63.8996 40.6715 63.8996 12.0001H-16.1004ZM11.9996 -38.4999C-15.9018 -38.4999 -38.5004 -15.9013 -38.5004 12.0001H41.4996C41.4996 28.2815 28.281 41.5001 11.9996 41.5001V-38.4999ZM-38.5004 12.0001C-38.5004 39.9015 -15.9018 62.5001 11.9996 62.5001V-17.4999C28.281 -17.4999 41.4996 -4.28129 41.4996 12.0001H-38.5004ZM11.9996 62.5001C39.901 62.5001 62.4996 39.9015 62.4996 12.0001H-17.5004C-17.5004 -4.28129 -4.28178 -17.4999 11.9996 -17.4999V62.5001ZM62.4996 12.0001C62.4996 -15.9013 39.901 -38.4999 11.9996 -38.4999V41.5001C-4.28178 41.5001 -17.5004 28.2815 -17.5004 12.0001H62.4996Z" fill="#1FCD64" mask="url(#path-1-inside-1_195_1819)"/>
<mask id="path-3-inside-2_195_1819" fill="white">
<path d="M10.5998 17.1801L4.50977 11.0901L5.48977 10.1101L10.5998 15.2201L18.5098 7.31006L19.4898 8.29006L10.5998 17.1801Z"/>
</mask>
<path d="M10.5998 17.1801L4.50977 11.0901L5.48977 10.1101L10.5998 15.2201L18.5098 7.31006L19.4898 8.29006L10.5998 17.1801Z" fill="#1FCD64"/>
<path d="M10.5998 17.1801L-17.6845 45.4643L10.5998 73.7486L38.884 45.4643L10.5998 17.1801ZM4.50977 11.0901L-23.7745 -17.1942L-52.0588 11.0901L-23.7745 39.3743L4.50977 11.0901ZM5.48977 10.1101L33.774 -18.1742L5.48975 -46.4585L-22.7945 -18.1742L5.48977 10.1101ZM10.5998 15.2201L-17.6845 43.5043L10.5998 71.7886L38.884 43.5043L10.5998 15.2201ZM18.5098 7.31006L46.794 -20.9742L18.5098 -49.2585L-9.77451 -20.9742L18.5098 7.31006ZM19.4898 8.29006L47.774 36.5743L76.0583 8.29006L47.774 -19.9942L19.4898 8.29006ZM38.884 -11.1042L32.794 -17.1942L-23.7745 39.3743L-17.6845 45.4643L38.884 -11.1042ZM32.7941 39.3743L33.7741 38.3943L-22.7945 -18.1742L-23.7745 -17.1942L32.7941 39.3743ZM-22.7945 38.3943L-17.6845 43.5043L38.884 -13.0642L33.774 -18.1742L-22.7945 38.3943ZM38.884 43.5043L46.794 35.5943L-9.77451 -20.9742L-17.6845 -13.0642L38.884 43.5043ZM-9.7745 35.5943L-8.7945 36.5743L47.774 -19.9942L46.794 -20.9742L-9.7745 35.5943ZM-8.7945 -19.9942L-17.6845 -11.1042L38.884 45.4643L47.774 36.5743L-8.7945 -19.9942Z" fill="#1FCD64" mask="url(#path-3-inside-2_195_1819)"/>
</svg>
