<svg width="200" height="51" viewBox="0 0 200 51" fill="none" xmlns="http://www.w3.org/2000/svg">
<g clip-path="url(#clip0_89_529)">
<rect width="200" height="51" fill="white"/>
<path d="M51.1122 9.60399C51.085 8.95716 50.9968 8.31437 50.8491 7.68418C50.3467 5.53634 49.1427 3.6188 47.4288 2.2367C45.7431 0.838329 43.6362 0.0519389 41.4494 0.00491571H10.3563C9.55452 -0.0191547 8.75245 0.0452253 7.9646 0.196897C6.092 0.608538 4.37972 1.55927 3.03755 2.93263C2.06051 3.88073 1.30848 5.03716 0.837121 6.31631C0.437261 7.25971 0.210392 8.26776 0.167424 9.29202H0V41.8329H0.167424C0.202209 42.8402 0.4211 43.8326 0.813203 44.7606C1.70509 47.0516 3.40848 48.9315 5.59675 50.0401C6.5041 50.5132 7.48119 50.8373 8.49079 51C8.52351 50.981 8.56064 50.971 8.59843 50.971C8.63621 50.971 8.67333 50.981 8.70605 51H42.43H42.5975H43.1954C44.9943 50.6159 46.6523 49.7401 47.9861 48.4696C49.32 47.1991 50.2777 45.5832 50.7534 43.8007C51.0138 42.8229 51.1345 41.8129 51.1122 40.801V9.60399ZM39.7273 34.3216C39.6886 34.4219 39.6886 34.5332 39.7273 34.6336C39.6685 35.018 39.5724 35.3957 39.4403 35.7615L39.0098 37.4173L38.8903 37.7772C38.8903 38.1373 38.6033 38.4252 38.1727 38.4732H38.0053C37.9409 38.5126 37.8694 38.539 37.7949 38.5506C37.7204 38.5623 37.6443 38.5592 37.571 38.5413C37.4977 38.5235 37.4286 38.4913 37.3677 38.4468C37.3068 38.4021 37.2552 38.3459 37.2159 38.2812C36.9963 37.9999 36.8542 37.6656 36.8039 37.3118C36.7535 36.9581 36.7966 36.5972 36.9289 36.2654L37.0725 35.9295C37.1083 35.7715 37.1083 35.6075 37.0725 35.4495C36.954 35.1076 36.954 34.7355 37.0725 34.3936C37.1123 34.2927 37.1735 34.2017 37.2521 34.1272C37.3306 34.0525 37.4244 33.996 37.5269 33.9616L38.1249 33.6976C38.2073 33.6678 38.2821 33.62 38.3442 33.5578C38.4062 33.4956 38.4538 33.4204 38.4837 33.3377C38.6271 33.0258 38.8663 32.7858 39.0337 32.4737C39.2011 32.1618 39.1773 32.1618 39.3685 32.1618C39.5599 32.1618 39.6556 32.3538 39.7513 32.5218C39.7868 32.6554 39.7868 32.7961 39.7513 32.9298V33.4097C39.8475 33.7074 39.8391 34.0293 39.7273 34.3216ZM40.3971 21.9868C40.3047 22.3044 40.1763 22.6104 40.0143 22.8987C39.7513 23.4027 39.4403 23.8826 39.1773 24.3866C38.9035 24.849 38.537 25.2494 38.1009 25.5624C37.267 26.1791 36.512 26.8965 35.8527 27.6982C35.5159 28.1294 35.2272 28.596 34.9917 29.0901C34.9559 29.1521 34.9372 29.2225 34.9372 29.2941C34.9372 29.3657 34.9559 29.4361 34.9917 29.4981C35.1052 29.825 35.1853 30.1627 35.2309 30.506C35.2591 30.7438 35.369 30.9644 35.5417 31.1299C35.6092 31.2082 35.6592 31.3001 35.6881 31.3996C35.717 31.4989 35.7242 31.6035 35.7091 31.7059C35.6613 32.1445 35.6613 32.5871 35.7091 33.0258C35.7283 33.3747 35.6336 33.7204 35.4394 34.0105C35.2452 34.3007 34.962 34.5193 34.6329 34.6336C34.2769 34.7234 33.9687 34.9467 33.7719 35.2575C33.7719 35.3775 33.5805 35.4016 33.4848 35.4735C33.3536 35.5405 33.2504 35.6521 33.1934 35.7882C33.1364 35.9245 33.1295 36.0766 33.1739 36.2174C33.1739 36.3854 33.1739 36.5774 33.2935 36.7694C33.3888 37.1636 33.3888 37.575 33.2935 37.9693C33.2704 38.062 33.2225 38.1468 33.1551 38.2144C33.0877 38.282 33.0032 38.33 32.9108 38.3532C32.7587 38.3837 32.613 38.4406 32.4803 38.5212C32.4046 38.5434 32.339 38.5916 32.2952 38.6574C32.2515 38.7233 32.2323 38.8025 32.2411 38.8812C32.2414 39.4564 32.0475 40.0146 31.691 40.465C31.2543 41.0972 30.7748 41.6986 30.2559 42.2648C30.0213 42.5333 29.7299 42.7459 29.403 42.887C29.0761 43.0282 28.722 43.0944 28.3664 43.0807C28.0404 43.0471 27.7118 43.0471 27.3858 43.0807L26.74 43.2008C26.5734 43.224 26.4044 43.224 26.2378 43.2008C26.1278 43.2039 26.0183 43.1854 25.9155 43.1461C25.8127 43.1068 25.7187 43.0476 25.6387 42.9718C25.5588 42.896 25.4944 42.8052 25.4495 42.7044C25.4046 42.6038 25.3798 42.4951 25.3768 42.3849C25.3651 42.3295 25.3651 42.2723 25.3768 42.2169C25.4104 41.8695 25.344 41.5196 25.1854 41.2089C24.9528 40.6508 24.6471 40.1263 24.2764 39.6491C24.1162 39.4562 24.009 39.2245 23.9656 38.9772L23.7504 37.5613C23.5847 36.9972 23.3172 36.4685 22.961 36.0014L22.6022 35.4255C22.5112 35.2628 22.4541 35.0831 22.4348 34.8976C22.3341 34.0749 22.4754 33.2408 22.8414 32.4978L23.1284 32.0658C23.2049 31.9435 23.2454 31.8022 23.2454 31.6578C23.2454 31.5135 23.2049 31.3721 23.1284 31.2499C23.0361 30.9703 22.9799 30.68 22.961 30.386C22.8443 29.8743 22.6759 29.3757 22.4588 28.8981C22.2795 28.6205 22.0711 28.363 21.8369 28.1302L21.526 27.8422C21.3691 27.6956 21.2585 27.5061 21.2074 27.2972C21.1564 27.0883 21.1674 26.869 21.239 26.6664C21.239 26.3783 21.3824 26.0904 21.4303 25.8024C21.442 25.6507 21.442 25.4983 21.4303 25.3465C21.4315 25.2181 21.386 25.0936 21.3023 24.9964C21.2187 24.8993 21.1026 24.836 20.9758 24.8185H20.0909C19.9967 24.8278 19.9018 24.8102 19.8173 24.7677C19.7326 24.7253 19.6616 24.6597 19.6125 24.5785C19.5479 24.488 19.4919 24.3916 19.4451 24.2906C19.3797 24.1703 19.2751 24.0762 19.1489 24.0238C19.0227 23.9714 18.8825 23.9639 18.7515 24.0026C18.4507 24.0213 18.1534 24.0777 17.8665 24.1706L17.1012 24.4105C16.7987 24.5373 16.4719 24.5947 16.1445 24.5785H15.5226C15.1261 24.5376 14.7256 24.5869 14.3507 24.7226C14.262 24.7688 14.1636 24.7929 14.0637 24.7929C13.9637 24.7929 13.8653 24.7688 13.7766 24.7226C13.0622 24.3646 12.3886 23.9302 11.7675 23.4266C11.5687 23.2676 11.4126 23.0615 11.3131 22.8267C11.203 22.6117 11.0576 22.4169 10.8825 22.2508C10.6195 21.9868 10.3803 21.7228 10.1172 21.4828C9.96997 21.3975 9.84396 21.2796 9.74867 21.1383C9.65339 20.997 9.5913 20.8358 9.56709 20.6669C9.56589 20.5671 9.544 20.4686 9.50283 20.3778C9.46165 20.2868 9.40209 20.2055 9.32792 20.139C9.30755 20.1209 9.29125 20.0988 9.28008 20.074C9.26891 20.0491 9.26314 20.0222 9.26314 19.995C9.26314 19.9677 9.26891 19.9408 9.28008 19.916C9.29125 19.8912 9.30755 19.869 9.32792 19.851L9.56709 19.611C9.79612 19.1542 9.93423 18.657 9.9737 18.1471C10.021 17.82 9.97113 17.4861 9.83018 17.1873C9.75897 17.0588 9.7216 16.9143 9.7216 16.7673C9.7216 16.6203 9.75897 16.4758 9.83018 16.3473C10.1032 15.8685 10.3429 15.3714 10.5477 14.8595C10.5726 14.6978 10.6295 14.5428 10.7151 14.4035C10.9065 14.1395 11.1217 13.8995 11.337 13.6356C11.3946 13.5657 11.4587 13.5014 11.5283 13.4436L12.3655 12.8436C12.5057 12.7654 12.6219 12.6503 12.702 12.5109C12.782 12.3714 12.8228 12.2127 12.8199 12.0517C12.7965 11.9006 12.7965 11.7469 12.8199 11.5958C12.9402 11.163 13.2011 10.7829 13.5613 10.5159L13.9679 10.1799C14.1258 10.0564 14.2561 9.90108 14.3507 9.72398C14.3745 9.62952 14.4149 9.54012 14.4703 9.46C14.4972 9.42936 14.5303 9.40482 14.5674 9.38801C14.6045 9.3712 14.6448 9.36251 14.6855 9.36251C14.7262 9.36251 14.7665 9.3712 14.8036 9.38801C14.8407 9.40482 14.8738 9.42936 14.9007 9.46C15.2858 9.62191 15.7085 9.67181 16.1205 9.60399C16.339 9.60375 16.5534 9.54581 16.7424 9.43601C17.5472 8.98298 18.4508 8.73572 19.3734 8.71607H19.7082C19.9531 8.66818 20.2048 8.66818 20.4496 8.71607C20.8173 8.72011 21.1823 8.655 21.526 8.5241C21.6087 8.46179 21.7094 8.42811 21.813 8.42811C21.9164 8.42811 22.0172 8.46179 22.1 8.5241C22.1 8.5241 22.4109 8.5241 22.4588 8.71607C22.5066 8.90806 22.4588 8.93206 22.3152 9.05204C22.2896 9.12998 22.2896 9.21408 22.3152 9.29202C22.3641 9.35326 22.3992 9.42421 22.4186 9.50016C22.4379 9.57612 22.4408 9.65532 22.4272 9.73251C22.4137 9.80971 22.3839 9.88312 22.3398 9.94785C22.2957 10.0126 22.2385 10.0672 22.1718 10.1079C22.1639 10.1637 22.1639 10.2202 22.1718 10.2759C22.1718 10.2759 22.1718 10.2759 22.1718 10.3959H22.3152C22.6108 10.547 22.9242 10.6599 23.248 10.7319L23.9894 10.8759C24.0842 10.8895 24.1737 10.9277 24.2491 10.9865C24.3247 11.0455 24.3836 11.1231 24.42 11.2118C24.4552 11.2901 24.5081 11.3591 24.5745 11.4133C24.641 11.4675 24.7191 11.5053 24.8026 11.5238L25.7116 11.8838C25.7907 11.8977 25.8716 11.8977 25.9508 11.8838C26.0942 11.8838 26.166 11.8838 26.2378 11.6917C26.2609 11.5568 26.2609 11.4188 26.2378 11.2839C26.2422 11.1705 26.2814 11.0614 26.3498 10.9713C26.4183 10.8812 26.5128 10.8142 26.6204 10.7799H27.027C27.1493 10.7502 27.2773 10.7522 27.3986 10.7858C27.52 10.8193 27.6308 10.8834 27.7206 10.9718C27.8615 11.0988 28.0359 11.1822 28.2229 11.2118L29.945 11.6438C30.2136 11.7519 30.5135 11.7519 30.7821 11.6438C31.0613 11.5487 31.364 11.5487 31.6431 11.6438H32.5281C32.7673 11.6438 32.9347 11.6438 32.9586 11.9798C32.9825 12.3157 32.9586 12.2677 32.9586 12.3877C33.0771 12.7379 33.0771 13.1175 32.9586 13.4676C32.9156 13.5351 32.8585 13.5924 32.7912 13.6356C32.6716 13.6356 32.6716 13.7796 32.7912 13.8995C32.9108 14.0196 32.9825 14.4035 33.1021 14.6435C33.3139 14.9519 33.4753 15.292 33.5805 15.6514C33.6319 15.7881 33.7137 15.9112 33.8197 16.0113C34.1561 16.3486 34.3455 16.806 34.3459 17.2833C34.3426 17.4165 34.3664 17.549 34.4157 17.6728C34.4651 17.7966 34.5389 17.909 34.6329 18.0032C34.9045 18.2537 35.0958 18.5794 35.1829 18.9391C35.2794 19.2217 35.4639 19.4657 35.7091 19.635C36.0919 19.947 36.4267 20.307 36.7855 20.643C36.9313 20.7864 37.0312 20.9702 37.0725 21.1709C37.0725 21.5548 37.3355 21.6989 37.7421 21.6269C38.0692 21.6362 38.3965 21.6283 38.7228 21.6028C39.1423 21.5587 39.5532 21.4536 39.9426 21.2909H40.0861C40.1159 21.2799 40.1477 21.2756 40.1794 21.2783C40.2111 21.2811 40.2417 21.2909 40.2691 21.3069C40.2966 21.323 40.3201 21.3449 40.3381 21.3712C40.356 21.3975 40.368 21.4273 40.3731 21.4589C40.4277 21.6296 40.436 21.8118 40.3971 21.9868Z" fill="#264ECA"/>
<path d="M200 3.58111C199.826 3.15233 199.542 2.77756 199.176 2.49508C198.81 2.2126 198.376 2.03253 197.918 1.97327C197.893 1.986 197.864 1.99262 197.835 1.99262C197.806 1.99262 197.777 1.986 197.752 1.97327H197.464C197.438 1.986 197.41 1.99262 197.38 1.99262C197.352 1.99262 197.323 1.986 197.297 1.97327C196.859 2.0324 196.447 2.21162 196.106 2.49113C195.764 2.77064 195.505 3.13957 195.36 3.55711L194.044 6.8688L192.155 11.4763C191.461 13.1801 190.767 14.8841 190.098 16.5879L187.706 22.1793L185.314 27.8427C185.314 27.8427 185.314 27.9868 185.147 27.9868C185.044 27.7934 184.957 27.5929 184.884 27.3868C183.926 24.987 182.994 22.5873 182.061 20.3555C181.128 18.1237 180.363 15.6999 179.382 13.3962C179.239 13.0098 179.072 12.633 178.881 12.2683C178.726 11.9438 178.496 11.6624 178.208 11.4489C177.92 11.2354 177.584 11.0965 177.23 11.0444C176.591 10.9604 175.945 11.1141 175.412 11.4763C175.191 11.5979 175.003 11.7707 174.862 11.9803C174.607 12.3239 174.447 12.7299 174.401 13.1562C174.355 13.5824 174.423 14.0134 174.598 14.404C174.838 15.052 175.101 15.6999 175.364 16.3479L178.091 23.0913C178.784 24.843 179.502 26.5949 180.22 28.3707C181.128 30.6505 182.037 32.9063 182.97 35.186C183.097 35.5453 183.275 35.8846 183.496 36.194C183.851 36.651 184.36 36.9635 184.927 37.0737C185.494 37.184 186.082 37.0847 186.581 36.794C187.112 36.4695 187.523 35.981 187.754 35.4021C188.758 32.8823 189.763 30.3865 190.791 27.8668C191.82 25.347 192.824 22.7553 193.852 20.2115L196.006 14.932C196.531 13.5642 197.082 12.2203 197.632 10.8764L199.641 5.83689L200 4.92498V3.60511V3.58111Z" fill="#264ECA"/>
<path d="M106.821 31.4938C106.223 30.198 105.649 28.9261 105.051 27.6542C104.214 25.8543 103.377 24.0545 102.66 22.2548C101.942 20.4549 101.081 18.871 100.268 17.1672L97.8759 11.7917C97.1823 10.2559 96.4648 8.72004 95.7473 7.18418L94.8862 5.33636C94.6231 4.76042 94.3839 4.16047 94.0969 3.60852C93.9407 3.21537 93.6836 2.87066 93.3519 2.60936C93.02 2.34806 92.6252 2.17946 92.2074 2.12067H92.04H91.466C91.4362 2.13547 91.4035 2.14317 91.3703 2.14317C91.3371 2.14317 91.3044 2.13547 91.2746 2.12067C91.1253 2.1495 90.9854 2.21552 90.868 2.31265H90.7006C90.2408 2.56877 89.8727 2.96329 89.6482 3.44054L88.5241 5.84031L85.4148 12.3196C84.4581 14.3835 83.5253 16.4473 82.5686 18.4871C81.6119 20.5269 80.7509 22.3987 79.8659 24.3666C79.6662 24.7553 79.4904 25.156 79.3397 25.5664C79.1761 25.9768 79.1434 26.4281 79.2463 26.8579C79.3491 27.2877 79.5823 27.6749 79.9137 27.9661C80.169 28.2147 80.4732 28.4071 80.8068 28.531C81.1403 28.6549 81.496 28.7078 81.8511 28.6861C82.395 28.6761 82.9155 28.4621 83.31 28.0862C83.5891 27.8002 83.8158 27.4672 83.9797 27.1023L85.4148 23.9105L88.261 17.7432L90.6528 12.2717L90.9876 11.6478C91.2508 11.3118 91.3224 10.8798 91.5616 10.5199C91.6017 10.5309 91.6382 10.5522 91.6675 10.5816C91.6968 10.611 91.7181 10.6477 91.7291 10.6879L92.1118 11.5037L94.8145 17.3352L96.5365 21.0788L99.5501 27.5822C100.244 29.1421 100.961 30.6539 101.679 32.2137L102.397 33.7976C102.707 34.4696 102.995 35.1414 103.33 35.7894C103.524 36.2548 103.86 36.6466 104.289 36.9095C104.718 37.1722 105.22 37.2926 105.721 37.2532C106.211 37.225 106.68 37.0463 107.065 36.7415C107.449 36.4368 107.732 36.0206 107.874 35.5494C108.05 34.9 107.982 34.2078 107.682 33.6056C107.467 32.8857 107.156 32.1898 106.821 31.4938Z" fill="#264ECA"/>
<path d="M166.372 25.0348C166.064 23.7349 165.401 22.5467 164.459 21.6031C163.689 20.8275 162.8 20.1795 161.828 19.6833C160.997 19.2617 160.133 18.9086 159.245 18.6273C158.073 18.1954 156.853 17.8835 155.657 17.5714C154.182 17.2269 152.728 16.7942 151.304 16.2756C150.624 16.0141 149.967 15.6929 149.343 15.3157C148.771 14.979 148.3 14.4936 147.98 13.9108C147.66 13.3278 147.503 12.6691 147.525 12.004C147.542 11.5822 147.607 11.1636 147.716 10.7561C147.96 9.76311 148.577 8.90316 149.439 8.35638C150.177 7.8949 150.985 7.55466 151.831 7.34847C152.852 7.07636 153.907 6.94715 154.964 6.96452C155.598 6.96452 156.207 6.71168 156.655 6.26163C157.103 5.81159 157.356 5.2012 157.356 4.56474C157.361 3.98243 157.156 3.4179 156.777 2.97639C156.398 2.53486 155.874 2.24648 155.299 2.16498H154.724C153.293 2.03609 151.851 2.11694 150.443 2.40495C148.391 2.91185 146.524 3.99382 145.061 5.52465C143.633 7.02829 142.785 8.9937 142.669 11.0681C142.593 12.0392 142.65 13.0161 142.837 13.9719C143.02 14.9817 143.401 15.9445 143.962 16.8036C144.703 17.9125 145.684 18.8394 146.832 19.5153C147.915 20.1734 149.072 20.7048 150.276 21.0991C151.926 21.6511 153.648 22.059 155.322 22.539C156.428 22.8103 157.515 23.155 158.575 23.5709C159.292 23.8558 159.968 24.235 160.584 24.6988C161.093 25.1123 161.46 25.6742 161.637 26.3066C161.851 27.2328 161.756 28.2038 161.367 29.0708C160.978 29.9377 160.317 30.6528 159.484 31.1062C158.177 31.8251 156.717 32.2201 155.227 32.2581C154.615 32.3175 153.997 32.3175 153.385 32.2581C152.651 32.1704 151.924 32.0341 151.209 31.8501C150.111 31.5564 149.075 31.0688 148.147 30.4103C147.708 30.0892 147.3 29.7276 146.927 29.3303C146.664 29.0284 146.297 28.8393 145.899 28.8024C145.336 28.6893 144.754 28.7478 144.225 28.9704C143.912 29.093 143.633 29.2869 143.409 29.5369C143.184 29.7869 143.022 30.0859 142.933 30.4103C142.81 30.8292 142.801 31.274 142.911 31.6969C143.021 32.1199 143.243 32.5048 143.555 32.81C144.48 33.7761 145.554 34.5864 146.735 35.2098C148.097 35.9259 149.556 36.4354 151.065 36.7216C152.133 36.9532 153.225 37.0659 154.318 37.0576H154.509C155.534 37.065 156.559 36.9847 157.571 36.8176C159.201 36.5028 160.764 35.9017 162.187 35.0418C163.455 34.2552 164.512 33.1672 165.263 31.874C166.014 30.5808 166.436 29.1221 166.492 27.6265V26.6907C166.507 26.1361 166.467 25.5813 166.372 25.0348Z" fill="#264ECA"/>
<path d="M132.217 22.6112C133.373 21.8877 134.367 20.9316 135.135 19.8034C135.982 18.4784 136.514 16.9759 136.69 15.4119C136.774 14.5419 136.774 13.666 136.69 12.7961C136.668 11.9891 136.572 11.1857 136.403 10.3963C136.117 9.16135 135.605 7.98989 134.896 6.94068C134.149 5.85499 133.199 4.92575 132.098 4.20494C130.003 2.69516 127.501 1.8584 124.922 1.80518C124.539 1.80518 124.133 1.80518 123.75 1.80518C122.803 1.89529 121.867 2.07201 120.952 2.33312C118.631 2.96078 116.565 4.30381 115.044 6.17275C114.461 6.90921 113.971 7.71527 113.585 8.57252C112.965 10.0931 112.679 11.7304 112.748 13.3721C112.753 13.7525 112.849 14.1261 113.027 14.4622C113.204 14.7983 113.458 15.0872 113.769 15.3052C114.079 15.5233 114.438 15.664 114.813 15.7159C115.189 15.7678 115.572 15.7294 115.929 15.6039C116.314 15.4852 116.662 15.2713 116.942 14.9819C117.223 14.6925 117.425 14.3369 117.532 13.948C117.567 13.605 117.567 13.2592 117.532 12.9161C117.541 11.9261 117.77 10.9506 118.201 10.0604C118.62 9.26061 119.239 8.58285 119.995 8.09257C120.525 7.74533 121.085 7.44808 121.669 7.20465C122.558 6.86719 123.495 6.68065 124.444 6.65271C125.096 6.65329 125.745 6.72572 126.381 6.86868C127.456 7.11479 128.476 7.5538 129.395 8.16456C130.141 8.68665 130.736 9.39904 131.117 10.2284C131.519 11.1111 131.738 12.0661 131.763 13.0361C131.852 13.9854 131.78 14.9431 131.547 15.8678C131.297 16.8444 130.702 17.6968 129.873 18.2676C128.708 19.0309 127.434 19.6134 126.095 19.9955C124.97 20.3554 123.703 20.6673 122.722 21.0514C121.314 21.4942 119.959 22.0896 118.679 22.8272C117.066 23.7669 115.701 25.081 114.698 26.6593C113.696 28.2376 113.084 30.0341 112.916 31.8983C112.916 32.3302 112.916 32.7622 112.796 33.2181C112.748 33.753 112.748 34.2911 112.796 34.826C112.796 35.4624 113.048 36.0728 113.497 36.5229C113.945 36.973 114.553 37.2257 115.188 37.2257C115.648 37.2248 116.098 37.0907 116.484 36.8395C116.87 36.5884 117.176 36.2309 117.365 35.8099C117.453 35.5857 117.517 35.3523 117.555 35.114C117.58 34.6584 117.58 34.2017 117.555 33.7461C117.571 32.8438 117.707 31.9477 117.963 31.0824C118.253 30.0385 118.795 29.0824 119.541 28.2986C120.144 27.6871 120.849 27.1838 121.621 26.8108C122.785 26.2479 123.993 25.7823 125.234 25.4189C126.381 25.035 127.625 24.723 128.702 24.315C129.929 23.8722 131.108 23.3011 132.217 22.6112Z" fill="#264ECA"/>
<path d="M163.836 10.2998C164.471 10.2998 165.079 10.0469 165.528 9.59685C165.976 9.14681 166.228 8.53642 166.228 7.89996C166.228 7.2635 165.976 6.65311 165.528 6.20306C165.079 5.75302 164.471 5.50018 163.836 5.50018C163.203 5.50018 162.594 5.75302 162.145 6.20306C161.697 6.65311 161.444 7.2635 161.444 7.89996C161.444 8.53642 161.697 9.14681 162.145 9.59685C162.594 10.0469 163.203 10.2998 163.836 10.2998Z" fill="#264ECA"/>
<path d="M173.14 6.84477C173.775 6.84477 174.383 6.59193 174.832 6.14189C175.28 5.69185 175.532 5.08146 175.532 4.445C175.532 3.97037 175.392 3.5064 175.129 3.11176C174.866 2.71712 174.492 2.40954 174.056 2.2279C173.618 2.04627 173.138 1.99874 172.674 2.09134C172.21 2.18393 171.784 2.41249 171.45 2.7481C171.115 3.08372 170.887 3.51132 170.795 3.97683C170.703 4.44234 170.75 4.92485 170.931 5.36335C171.112 5.80185 171.418 6.17664 171.812 6.44033C172.205 6.70402 172.667 6.84477 173.14 6.84477Z" fill="#264ECA"/>
<path d="M134.393 32.2094C133.759 32.2094 133.15 32.4623 132.703 32.9123C132.254 33.3623 132.001 33.9727 132.001 34.6092C132.001 35.2457 132.254 35.856 132.703 36.3061C133.15 36.7561 133.759 37.0089 134.393 37.0089C135.027 37.0089 135.635 36.7561 136.084 36.3061C136.533 35.856 136.785 35.2457 136.785 34.6092C136.785 33.9727 136.533 33.3623 136.084 32.9123C135.635 32.4623 135.027 32.2094 134.393 32.2094Z" fill="#264ECA"/>
<path d="M77.5881 37.0582C78.2224 37.0582 78.8307 36.8055 79.2792 36.3555C79.7278 35.9053 79.9797 35.295 79.9797 34.6585C79.9797 34.0221 79.7278 33.4116 79.2792 32.9616C78.8307 32.5116 78.2224 32.2587 77.5881 32.2587C76.9537 32.2587 76.3453 32.5116 75.8968 32.9616C75.4483 33.4116 75.1963 34.0221 75.1963 34.6585C75.1963 35.295 75.4483 35.9053 75.8968 36.3555C76.3453 36.8055 76.9537 37.0582 77.5881 37.0582Z" fill="#264ECA"/>
<path d="M120.498 42.5057H119.876C119.102 42.6591 118.407 43.0837 117.917 43.7035C117.427 44.3234 117.171 45.0983 117.197 45.8895C117.183 46.3321 117.258 46.773 117.417 47.1856C117.578 47.5981 117.821 47.9737 118.13 48.2892C118.43 48.624 118.8 48.888 119.213 49.0622C119.627 49.2365 120.074 49.3167 120.522 49.2971C120.979 49.314 121.434 49.2229 121.849 49.0312C122.264 48.8394 122.63 48.5524 122.914 48.1933C123.389 47.6555 123.683 46.9818 123.757 46.2671C123.83 45.5524 123.676 44.8328 123.32 44.2096C123.058 43.6871 122.654 43.2497 122.155 42.9482C121.655 42.6467 121.081 42.4933 120.498 42.5057ZM121.025 48.4572H120.857H120.331C119.869 48.4475 119.421 48.3041 119.039 48.0444C118.657 47.7846 118.358 47.4197 118.178 46.9933C117.972 46.5839 117.874 46.128 117.896 45.6697C117.916 45.2114 118.055 44.7664 118.298 44.3775C118.507 43.9834 118.822 43.6556 119.205 43.4309C119.59 43.2062 120.03 43.0936 120.474 43.1057C120.822 43.1179 121.162 43.2059 121.471 43.3634C121.781 43.5208 122.053 43.7441 122.268 44.0176C122.557 44.3606 122.757 44.7695 122.851 45.2083C122.944 45.6471 122.929 46.1025 122.806 46.534C122.683 46.9656 122.457 47.3601 122.145 47.683C121.835 48.0058 121.45 48.247 121.025 48.3852V48.4572Z" fill="#264ECA"/>
<path d="M153.575 42.5043C153.346 42.4675 153.111 42.4675 152.882 42.5043C152.228 42.6608 151.642 43.0223 151.208 43.5361C150.916 43.8604 150.692 44.2395 150.549 44.6516C150.405 45.0636 150.344 45.5001 150.37 45.9359C150.412 46.6826 150.688 47.3969 151.16 47.9757C151.545 48.4516 152.061 48.8033 152.643 48.9868C153.226 49.1703 153.849 49.1775 154.436 49.0076C155.141 48.7976 155.75 48.3478 156.159 47.7358C156.577 47.132 156.788 46.407 156.756 45.6719C156.738 44.9703 156.504 44.2914 156.087 43.7281C155.794 43.3404 155.413 43.0276 154.977 42.8149C154.541 42.6022 154.061 42.4958 153.575 42.5043ZM155.274 47.7837C154.994 48.0778 154.644 48.2957 154.258 48.4171C153.872 48.5385 153.461 48.5594 153.064 48.4778C152.667 48.3963 152.297 48.215 151.99 47.9509C151.681 47.6867 151.445 47.3485 151.303 46.9678C151.018 46.3286 150.989 45.604 151.22 44.9432C151.45 44.2825 151.926 43.736 152.547 43.4162C152.927 43.2221 153.354 43.1415 153.778 43.1841C154.202 43.2267 154.605 43.3905 154.939 43.6562C155.254 43.8899 155.514 44.1887 155.703 44.5326C155.892 44.8763 156.006 45.257 156.035 45.6486C156.065 46.0402 156.01 46.4335 155.874 46.802C155.739 47.1704 155.526 47.5053 155.249 47.7837H155.274Z" fill="#264ECA"/>
<path d="M90.0982 46.8483C89.835 46.3923 89.8829 46.3684 90.2656 46.2004C90.6254 45.9965 90.9075 45.6784 91.0676 45.2962C91.2278 44.914 91.257 44.4892 91.1506 44.0886C91.0593 43.6841 90.8352 43.3223 90.5141 43.061C90.1931 42.7999 89.7939 42.6547 89.3806 42.6487C88.998 42.6487 88.5914 42.6487 88.2086 42.6487H87.4433C87.1802 42.6487 87.1562 42.6487 87.1562 42.9608V48.7202C87.1562 49.1281 87.1562 49.1281 87.5868 49.1281C88.0174 49.1281 87.8738 49.1281 87.8738 48.8641V47.2323C87.8738 46.3204 87.7542 46.4644 88.687 46.4644C88.775 46.4516 88.8649 46.4681 88.9426 46.5115C89.0204 46.5548 89.0818 46.6226 89.1176 46.7044L89.572 47.4723L90.3852 48.9122C90.3852 48.9122 90.3852 49.1041 90.6244 49.1281C90.8228 49.1532 91.0238 49.1532 91.2223 49.1281C91.2518 49.0509 91.2518 48.9654 91.2223 48.8882L90.0982 46.8483ZM89.5002 45.7444H88.1369C87.9456 45.7444 87.8978 45.7444 87.8978 45.5044V44.4966V43.4646C87.8978 43.3207 87.8978 43.2487 88.113 43.2487H89.4764C89.7016 43.2577 89.9193 43.333 90.1021 43.4653C90.2851 43.5975 90.4251 43.7809 90.5048 43.9926C90.6302 44.2899 90.6381 44.624 90.5271 44.927C90.416 45.2301 90.1943 45.4794 89.9068 45.6245C89.7799 45.6895 89.642 45.7301 89.5002 45.7444Z" fill="#264ECA"/>
<path d="M131.549 46.1044C131.103 45.826 130.608 45.6385 130.09 45.5525C129.778 45.5525 129.467 45.4324 129.18 45.3364C129.006 45.2938 128.837 45.2293 128.679 45.1445C128.571 45.0777 128.48 44.9885 128.41 44.8832C128.34 44.7778 128.292 44.6587 128.272 44.5336C128.251 44.4087 128.258 44.2806 128.291 44.1583C128.324 44.036 128.382 43.9223 128.463 43.8246C128.635 43.613 128.857 43.4479 129.109 43.3447C129.495 43.2602 129.895 43.2602 130.281 43.3447C130.517 43.355 130.748 43.4161 130.958 43.5237C131.169 43.6314 131.354 43.7831 131.501 43.9686C131.692 44.2086 131.692 44.2086 131.955 44.1126C131.984 44.1096 132.012 44.099 132.036 44.0818C132.059 44.0648 132.079 44.0418 132.09 44.015C132.102 43.9883 132.107 43.9589 132.105 43.9298C132.102 43.9006 132.092 43.8725 132.075 43.8487C131.93 43.5452 131.697 43.2938 131.405 43.1287C130.908 42.8232 130.338 42.6574 129.755 42.6487C129.386 42.6556 129.022 42.7288 128.679 42.8647C128.365 42.9887 128.087 43.1862 127.865 43.4407C127.72 43.6218 127.617 43.8323 127.561 44.0576C127.505 44.2828 127.499 44.5175 127.542 44.7455C127.585 44.9735 127.677 45.1895 127.812 45.3785C127.946 45.5675 128.119 45.7251 128.319 45.8404L128.654 45.9845C128.997 46.1056 129.35 46.2019 129.707 46.2724C130.034 46.3269 130.355 46.4153 130.663 46.5364C130.827 46.5921 130.98 46.673 131.118 46.7764C131.269 46.8946 131.376 47.0618 131.42 47.2497C131.463 47.4376 131.441 47.6348 131.357 47.8082C131.213 48.1107 130.955 48.3436 130.64 48.4562C130.203 48.6346 129.722 48.668 129.265 48.5513C128.81 48.4347 128.402 48.1742 128.104 47.8082C128.078 47.7846 128.044 47.7716 128.009 47.7716C127.973 47.7716 127.94 47.7846 127.913 47.8082L127.602 47.9283C127.602 47.9283 127.458 48.0482 127.602 48.1442C127.706 48.3766 127.861 48.5819 128.056 48.7442C128.454 49.0633 128.929 49.2714 129.434 49.3472C129.938 49.4231 130.452 49.364 130.926 49.1761C131.227 49.0604 131.502 48.8894 131.74 48.6721C131.938 48.5137 132.093 48.3094 132.194 48.0769C132.295 47.8443 132.338 47.5905 132.319 47.3377C132.3 47.0847 132.221 46.8402 132.086 46.6253C131.952 46.4104 131.767 46.2316 131.549 46.1044Z" fill="#264ECA"/>
<path d="M105.979 44.6895L105.237 42.8656C105.215 42.7876 105.169 42.719 105.104 42.6711C105.039 42.6233 104.958 42.5988 104.878 42.6016C104.256 42.6016 104.328 42.6016 104.089 43.1537V43.3456C103.515 44.9774 102.917 46.6093 102.319 48.1451C102.245 48.3334 102.181 48.5257 102.128 48.7211C102.128 48.9131 102.128 48.961 102.271 48.9851H102.558C102.617 48.9873 102.675 48.9696 102.723 48.9348C102.771 48.8999 102.805 48.8501 102.821 48.793L103.18 47.8572C103.192 47.7851 103.23 47.7201 103.288 47.6755C103.346 47.6311 103.418 47.6101 103.491 47.6172C104.328 47.6172 105.189 47.6172 106.05 47.6172C106.135 47.6102 106.22 47.6362 106.286 47.6897C106.353 47.7433 106.397 47.8204 106.409 47.9051L106.624 48.5291L106.768 48.8411C106.779 48.8769 106.8 48.9082 106.83 48.9299C106.861 48.9516 106.897 48.9627 106.935 48.961C107.115 49.01 107.305 49.01 107.485 48.961C107.519 48.8516 107.519 48.7346 107.485 48.6251C106.959 47.3772 106.48 46.0333 105.979 44.6895ZM103.587 47.0892C103.587 47.0892 103.587 47.0892 103.587 46.9212C103.993 45.8414 104.376 44.7855 104.783 43.6575C104.969 44.0382 105.128 44.4311 105.261 44.8335C105.381 45.1935 105.524 45.5774 105.667 45.9373C105.82 46.3207 105.948 46.7135 106.05 47.1132C105.227 47.1341 104.404 47.0939 103.587 46.9932V47.0892Z" fill="#264ECA"/>
<path d="M80.842 48.5036L78.9285 42.984C78.9376 42.9123 78.9376 42.8398 78.9285 42.7681C78.9163 42.7312 78.8941 42.6983 78.8647 42.6729C78.8351 42.6476 78.7994 42.6307 78.7611 42.6241C78.5459 42.6241 78.3067 42.6241 78.1153 42.6241C77.9241 42.6241 77.9479 42.9121 77.8763 43.08C77.2305 44.8559 76.6085 46.6077 75.9627 48.3595C75.9627 48.5515 75.8432 48.7435 75.7715 48.9595C75.9452 48.9932 76.1239 48.9932 76.2977 48.9595C76.3454 48.9539 76.3907 48.9353 76.4286 48.9057C76.4666 48.8761 76.4957 48.8366 76.5129 48.7915V48.5756L76.7281 47.9996C76.8717 47.5916 76.8717 47.5916 77.2543 47.5916H79.6461C79.7042 47.5931 79.7604 47.6123 79.8074 47.6467C79.8543 47.6809 79.8899 47.7287 79.9093 47.7837C79.9093 47.9036 79.9092 48.0476 80.0288 48.1676C80.1484 48.2875 80.1963 48.5996 80.268 48.7915C80.2852 48.8366 80.3142 48.8761 80.3522 48.9057C80.3902 48.9353 80.4354 48.9539 80.4833 48.9595C80.9377 48.9595 81.0812 48.9595 80.8659 48.4796C80.8659 48.5756 80.842 48.5275 80.842 48.5036ZM79.4069 47.0397H77.2305C77.0391 47.0397 77.0151 47.0397 77.0631 46.8237C77.1165 46.6441 77.1803 46.4679 77.2543 46.2958C77.5653 45.3839 77.9001 44.4959 78.2589 43.512C78.4193 43.764 78.5403 44.0392 78.6177 44.328L79.4547 46.7277V46.9677C79.4483 46.9968 79.4313 47.0225 79.4069 47.0397Z" fill="#264ECA"/>
<path d="M177.709 48.5291C177.134 46.9452 176.56 45.3854 176.01 43.7296L175.652 42.7457C175.646 42.7138 175.633 42.6835 175.616 42.6565C175.598 42.6295 175.576 42.6062 175.548 42.5884C175.522 42.5704 175.491 42.5581 175.46 42.5522C175.428 42.5461 175.396 42.5467 175.364 42.5537H175.173C175.173 42.5537 175.173 42.5537 175.029 42.5537C174.987 42.5432 174.942 42.5419 174.899 42.5497C174.856 42.5577 174.815 42.5746 174.78 42.5996C174.743 42.6245 174.713 42.6568 174.689 42.6944C174.667 42.732 174.653 42.774 174.647 42.8177C174.647 42.8177 174.647 42.8177 174.647 42.9616L172.614 48.5771C172.447 49.0091 172.47 49.033 172.901 49.033C173.331 49.033 173.212 49.033 173.26 48.793C173.308 48.5531 173.475 48.2411 173.571 47.9532C173.583 47.8683 173.626 47.7912 173.693 47.7377C173.759 47.6842 173.845 47.6582 173.929 47.6652C174.758 47.6652 175.555 47.6652 176.321 47.6652C176.409 47.6554 176.497 47.6763 176.572 47.7244C176.646 47.7725 176.7 47.8448 176.728 47.9292C176.728 48.2411 176.943 48.5291 177.039 48.8171C177.055 48.8805 177.092 48.9363 177.144 48.9756C177.197 49.0149 177.261 49.0351 177.326 49.033H177.517C177.756 49.033 177.804 49.033 177.732 48.7451C177.661 48.4571 177.732 48.625 177.709 48.5291ZM176.345 47.0653H173.953C173.953 47.0653 173.953 46.9453 173.953 46.8973L175.102 43.7296C175.555 44.7716 175.954 45.837 176.297 46.9212C176.327 46.9636 176.343 47.0135 176.345 47.0653Z" fill="#264ECA"/>
<path d="M190.193 43.3201H193.087C193.136 43.1557 193.136 42.9807 193.087 42.8161H192.8C191.78 42.8161 190.751 42.8161 189.715 42.8161C189.652 42.8044 189.587 42.8044 189.524 42.8161C189.38 42.8161 189.332 42.8161 189.309 43.0082V49.0075C189.309 49.2236 189.309 49.2475 189.595 49.2715H193.064C193.101 49.2715 193.138 49.2564 193.164 49.2294C193.192 49.2024 193.207 49.1657 193.207 49.1276V48.7916C193.211 48.7717 193.211 48.7511 193.205 48.7315C193.2 48.7119 193.19 48.6941 193.175 48.6797C193.16 48.6652 193.143 48.6547 193.124 48.6491C193.104 48.6435 193.083 48.643 193.064 48.6476H190.217C190.002 48.6476 189.978 48.6476 189.978 48.3836V46.5359C189.978 46.2719 189.978 46.2478 190.289 46.2239H192.322C192.657 46.2239 192.705 46.2239 192.705 45.8399C192.705 45.4559 192.705 45.5279 192.394 45.5279H192.059C191.485 45.5279 190.887 45.5279 190.313 45.5279C189.739 45.5279 189.978 45.5279 189.978 45.216V43.8001C189.915 43.7715 189.865 43.7187 189.841 43.6535C189.816 43.5882 189.818 43.5158 189.847 43.4521C189.875 43.3885 189.928 43.3388 189.993 43.3141C190.058 43.2893 190.13 43.2915 190.193 43.3201Z" fill="#264ECA"/>
<path d="M97.5128 43.3689C97.9183 43.1886 98.3693 43.1383 98.8044 43.2249C99.3047 43.3278 99.7627 43.5785 100.12 43.9448C100.335 44.1608 100.383 44.1608 100.646 43.9448C100.814 43.9448 100.837 43.7528 100.646 43.6329C100.297 43.1912 99.8329 42.8547 99.3056 42.66C98.7782 42.4653 98.2076 42.4199 97.6563 42.5289C97.2578 42.5968 96.8777 42.7471 96.54 42.9702C96.2024 43.1932 95.9146 43.4842 95.695 43.8248C95.4 44.231 95.1996 44.6985 95.1085 45.1926C95.0175 45.6869 95.0381 46.1953 95.1688 46.6805C95.2794 47.178 95.5062 47.6419 95.8306 48.0341C96.1549 48.4264 96.5676 48.7355 97.0344 48.9363C97.4743 49.1448 97.9604 49.2358 98.4456 49.2003C99.2116 49.1445 99.9287 48.8019 100.455 48.2404C100.813 47.8564 100.813 47.8324 100.455 47.5924C100.413 47.5613 100.363 47.5445 100.311 47.5445C100.259 47.5445 100.209 47.5613 100.168 47.5924C100.098 47.6502 100.034 47.7145 99.9763 47.7845C99.562 48.1704 99.0248 48.3968 98.4599 48.4231C97.8951 48.4495 97.3392 48.2742 96.891 47.9284C96.5534 47.6945 96.2815 47.3773 96.1014 47.0075C95.9213 46.6377 95.839 46.2275 95.8624 45.8166C95.8596 45.2892 96.0156 44.7733 96.3102 44.3365C96.6047 43.8997 97.0239 43.5624 97.5128 43.3689Z" fill="#264ECA"/>
<path d="M148.528 47.6397L148.361 47.8077C148.134 48.0403 147.862 48.2241 147.562 48.3478C147.261 48.4716 146.939 48.5327 146.614 48.5276C146.25 48.5175 145.892 48.4236 145.569 48.2531C145.245 48.0824 144.965 47.8398 144.749 47.5437C144.409 47.0727 144.226 46.5058 144.226 45.9239C144.226 45.3421 144.409 44.7752 144.749 44.304C145.066 43.8027 145.557 43.4369 146.126 43.2773C146.697 43.1178 147.305 43.1758 147.835 43.4402C148.111 43.5805 148.362 43.7672 148.576 43.9921C148.72 44.1601 148.768 44.1361 148.959 43.9921H149.174C149.174 43.9921 149.294 43.8481 149.174 43.7521C148.891 43.3849 148.528 43.0864 148.115 42.8787C147.701 42.671 147.245 42.5594 146.782 42.5523C146.328 42.5362 145.875 42.6252 145.461 42.8125C145.046 42.9997 144.68 43.2801 144.39 43.6321C144.088 43.984 143.858 44.3932 143.716 44.8353C143.574 45.2776 143.521 45.7441 143.561 46.207C143.601 46.6701 143.733 47.1203 143.949 47.5313C144.166 47.9423 144.462 48.3055 144.822 48.5996C145.393 49.0677 146.117 49.307 146.854 49.2716C147.508 49.2458 148.137 49.0103 148.648 48.5996C148.888 48.4155 149.091 48.1876 149.246 47.9277C149.111 47.8133 148.958 47.7239 148.791 47.6638C148.778 47.6423 148.76 47.6242 148.737 47.611C148.716 47.5977 148.691 47.5895 148.666 47.5873C148.641 47.585 148.614 47.5884 148.591 47.5976C148.567 47.6067 148.545 47.6211 148.528 47.6397Z" fill="#264ECA"/>
<path d="M171.825 42.9606H171.634C171.588 42.9613 171.543 42.9753 171.505 43.0008C171.467 43.0264 171.437 43.0624 171.418 43.1045C171.405 43.192 171.405 43.2811 171.418 43.3685C170.988 44.5204 170.581 45.6483 170.175 46.8002C169.983 47.3281 169.768 47.8561 169.577 48.4321C169.453 48.3173 169.37 48.1659 169.337 48.0001C168.883 46.7522 168.429 45.6002 167.998 44.2805C167.855 43.9204 167.735 43.5365 167.591 43.1765C167.586 43.1286 167.568 43.0832 167.538 43.045C167.509 43.007 167.469 42.9777 167.425 42.9606H166.945V43.1045" fill="#264ECA"/>
<path d="M171.824 42.9606H171.634C171.588 42.9613 171.543 42.9753 171.505 43.0008C171.467 43.0264 171.437 43.0624 171.418 43.1045C171.405 43.192 171.405 43.2811 171.418 43.3685C170.988 44.5204 170.581 45.6483 170.175 46.8002C169.983 47.3281 169.768 47.8561 169.577 48.4321C169.453 48.3173 169.37 48.1659 169.337 48.0001C168.883 46.7522 168.429 45.6002 167.998 44.2805C167.855 43.9204 167.735 43.5365 167.591 43.1765C167.586 43.1286 167.568 43.0832 167.538 43.045C167.509 43.007 167.469 42.9777 167.425 42.9606H166.945V43.1045" stroke="white" stroke-width="0.3"/>
<path d="M86.1041 42.7921C86.0983 42.7455 86.0756 42.7026 86.0403 42.6716C86.0051 42.6406 85.9597 42.6238 85.9128 42.6241H82.5165C82.349 42.6241 82.3252 42.6241 82.3012 42.8641V48.5515C82.2893 48.6792 82.2893 48.8078 82.3012 48.9355C82.2857 48.9563 82.2773 48.9815 82.2773 49.0076C82.2773 49.0335 82.2857 49.0588 82.3012 49.0795C82.449 49.1272 82.6079 49.1272 82.7556 49.0795C82.7894 49.0738 82.8201 49.0561 82.842 49.0297C82.8639 49.0033 82.8757 48.9699 82.8752 48.9355V46.5358C82.8634 46.416 82.8634 46.2955 82.8752 46.1758C82.8752 46.0318 82.8752 45.9838 83.0905 45.9598H85.1235C85.5062 45.9598 85.554 45.9598 85.5301 45.5278C85.5062 45.0959 85.5301 45.2638 85.2431 45.2638C84.9561 45.2638 84.2386 45.2638 83.7363 45.2638H83.1144C82.9231 45.2638 82.8752 45.2638 82.8752 44.9999C82.8752 44.7359 82.8752 44.256 82.8752 43.872C82.8633 43.7604 82.8633 43.6477 82.8752 43.5361C82.8752 43.392 82.8752 43.344 83.0666 43.32H85.4584C85.9606 43.32 85.9128 43.32 85.9128 42.8401L86.1041 42.7921Z" fill="#264ECA"/>
<path d="M198.83 42.6245C198.766 42.6137 198.702 42.6244 198.645 42.6548C198.589 42.6853 198.544 42.7337 198.518 42.7925C198.449 42.8622 198.393 42.9434 198.35 43.0324L197.107 45.0962C197.107 45.0962 197.107 45.2882 196.868 45.3122L196.055 43.9683L195.385 42.8884C195.385 42.8884 195.265 42.7204 195.17 42.7204C195.074 42.7204 194.764 42.7204 194.572 42.7204C194.381 42.7204 194.715 43.0324 194.787 43.2004V43.3204L196.438 45.9841C196.483 46.1245 196.483 46.2758 196.438 46.4161V48.8159C196.438 48.9839 196.438 49.0318 196.676 49.0559C196.916 49.0798 197.155 49.0559 197.155 48.5759V46.488C197.151 46.2531 197.208 46.0212 197.322 45.8161L199.116 43.2004C199.116 43.0564 199.379 42.9124 199.308 42.7925C199.236 42.6724 198.997 42.6484 198.83 42.6245Z" fill="#264ECA"/>
<path d="M116.001 42.6014C114.613 42.6014 113.226 42.6014 111.839 42.6014C111.408 42.6014 111.289 42.7694 111.408 43.2014C111.527 43.6333 111.408 43.2014 111.527 43.3213H113.369C113.489 43.3213 113.561 43.3213 113.561 43.5133V48.5288C113.548 48.6565 113.548 48.7852 113.561 48.9129V49.0328C113.644 49.0684 113.734 49.0869 113.824 49.0869C113.914 49.0869 114.004 49.0684 114.087 49.0328V43.7533C114.087 43.4653 114.087 43.4173 114.422 43.4173H116.024C116.239 43.4173 116.287 43.4173 116.287 43.1774C116.287 42.9374 116.431 42.6014 116.001 42.6014Z" fill="#264ECA"/>
<path d="M187.659 48.4082H185.482C184.909 48.4082 184.932 48.4082 184.932 47.8563V43.0568C184.932 42.6007 184.932 42.6007 184.454 42.6248C183.976 42.6488 184.262 42.6248 184.239 42.8168V48.9122C184.239 48.9122 184.239 49.0561 184.43 49.0802H187.516C187.85 49.0802 187.874 49.0802 187.874 48.6961C187.874 48.4562 187.827 48.4322 187.659 48.4082Z" fill="#264ECA"/>
<path d="M182.683 48.4323H180.459C179.885 48.4323 179.909 48.4323 179.909 47.9044V42.8889C179.909 42.8889 179.909 42.6729 179.909 42.6489C179.822 42.6126 179.728 42.594 179.634 42.594C179.539 42.594 179.446 42.6126 179.359 42.6489V48.7924C179.354 48.8154 179.357 48.839 179.363 48.8614C179.37 48.8838 179.382 48.9041 179.398 48.9206C179.415 48.9371 179.436 48.9494 179.458 48.9563C179.479 48.9632 179.504 48.9647 179.526 48.9603H182.851C182.893 48.883 182.915 48.7964 182.915 48.7084C182.915 48.6203 182.893 48.5337 182.851 48.4564C182.851 48.4564 182.708 48.4323 182.683 48.4323Z" fill="#264ECA"/>
<path d="M139.633 48.4323H137.409C136.834 48.4323 136.858 48.4323 136.858 47.9044V42.8889C136.858 42.8889 136.858 42.6729 136.858 42.6489C136.771 42.6126 136.678 42.594 136.583 42.594C136.489 42.594 136.395 42.6126 136.308 42.6489V48.7924C136.304 48.8154 136.305 48.839 136.312 48.8614C136.319 48.8838 136.331 48.9041 136.348 48.9206C136.364 48.9371 136.384 48.9494 136.407 48.9563C136.429 48.9632 136.452 48.9647 136.476 48.9603H139.8C139.842 48.883 139.864 48.7964 139.864 48.7084C139.864 48.6203 139.842 48.5337 139.8 48.4564C139.8 48.4564 139.656 48.4323 139.633 48.4323Z" fill="#264ECA"/>
<path d="M134.13 42.6014C133.939 42.6014 133.914 42.6014 133.891 42.8174V48.5288C133.879 48.6486 133.879 48.7691 133.891 48.8888V49.0088C133.974 49.0444 134.064 49.0628 134.154 49.0628C134.244 49.0628 134.334 49.0444 134.417 49.0088C134.417 49.0088 134.417 49.0088 134.417 48.8888C134.428 48.8173 134.428 48.7444 134.417 48.6729V42.9853C134.512 42.6254 134.489 42.6014 134.13 42.6014Z" fill="#264ECA"/>
<path d="M142.024 42.8401C142.024 42.6721 142.024 42.6241 141.784 42.6241C141.546 42.6241 141.354 42.6241 141.354 43.0321V48.6475C141.34 48.735 141.34 48.8241 141.354 48.9115V49.0315C141.437 49.0671 141.526 49.0855 141.617 49.0855C141.708 49.0855 141.797 49.0671 141.881 49.0315C141.881 49.0315 141.881 49.0315 141.881 48.9115C141.892 48.7918 141.892 48.6713 141.881 48.5515V42.8401H142.024Z" fill="#264ECA"/>
<path d="M93.2793 42.6014C93.1357 42.6014 93.0879 42.6014 93.0879 42.7934V48.6729C93.0879 49.0328 93.0879 49.0568 93.4467 49.0568C93.5037 49.0568 93.5586 49.034 93.5989 48.9935C93.6393 48.9531 93.6619 48.8981 93.6619 48.8409V42.9853C93.7576 42.6254 93.7097 42.6014 93.2793 42.6014Z" fill="#264ECA"/>
<path d="M162.18 42.6144C162.133 42.6202 162.09 42.643 162.06 42.6784C162.028 42.7138 162.012 42.7593 162.012 42.8063C162 42.9339 162 43.0626 162.012 43.1903V47.6539L161.702 47.4139C160.816 46.118 159.931 44.7502 159.07 43.3822L158.664 42.7823C158.428 42.6344 158.149 42.5748 157.874 42.6144C157.852 42.7816 157.852 42.9511 157.874 43.1183V48.8777C157.874 49.0217 157.874 49.0698 158.089 49.0698C158.305 49.0698 158.544 49.0698 158.544 48.6378V44.1742L159.597 45.758L161.582 48.8777C161.625 48.9532 161.688 49.0153 161.764 49.0576C161.84 49.0998 161.926 49.1207 162.012 49.1177C162.658 49.0937 162.658 49.0937 162.658 48.6378V43.0463C162.658 42.6144 162.658 42.6144 162.18 42.6144Z" fill="#264ECA"/>
</g>
<defs>
<clipPath id="clip0_89_529">
<rect width="200" height="51" fill="white"/>
</clipPath>
</defs>
</svg>
